<svg xmlns="http://www.w3.org/2000/svg" width="130" height="41" viewBox="0 0 130 41">
    <g fill="none" fill-rule="evenodd">
        <g>
            <path fill="#F8F8F8" d="M-3 0H525V1225H-3z" transform="translate(-290.000000, -17.000000)"/>
            <g fill-rule="nonzero">
                <path fill="#9DC75F" d="M125.192 1.56c-.304.347-.564.694-.867 1.04-.304.348-.564.738-.867 1.128-.564.824-1.214 1.604-1.777 2.47-.304.478-.564.911-.867 1.301-.304.477-.564.91-.824 1.43-.564.911-1.084 1.952-1.56 2.905-.477 1.04-.911 1.994-1.301 3.035-.39 1.04-.824 1.994-1.084 3.034-.347.954-.65 1.95-.867 2.861-.217.91-.477 1.82-.693 2.644-.13.477-.217.91-.347 1.388 18.857-5.332 17.99-4.639 12.224-24.71-.39.52-.78.954-1.17 1.475M111.537 19.68c.39-.91.824-1.95 1.257-2.904.477-1.04.954-1.994 1.56-3.034.564-1.04 1.128-2.081 1.778-3.035.65-.953 1.257-1.95 1.994-2.86.347-.478.694-.911 1.04-1.388.347-.477.737-.867 1.084-1.257.694-.867 1.43-1.604 2.124-2.341.347-.347.694-.694.954-1.04.347-.347.693-.65.953-.91.347-.347.694-.65.954-.911-19.333 5.505-19.594 4.638-14.565 22.065.303-.91.607-1.648.867-2.385" transform="translate(-290.000000, -17.000000) translate(290.000000, 17.000000)"/>
                <path fill="#3E3C3D" d="M2.167 20.938H.173c-.043-.217-.13-.52-.13-.824C0 19.81 0 19.55 0 19.29c0-.52.043-1.04.173-1.56h6.07v15.259c-.694.13-1.388.173-2.081.173-.65 0-1.301-.043-2.081-.173V20.938h.086zm-.606-5.81c-.13-.693-.174-1.3-.174-1.993 0-.65.044-1.257.174-1.994.346-.044.693-.13 1.083-.13.39-.044.737-.044 1.04-.044.347 0 .694 0 1.084.044.39.043.737.043 1.084.13.043.346.13.693.13.953v1.908c0 .347-.043.693-.13 1.04-.347.13-.693.173-1.084.173-.39 0-.737.044-1.083.044-.347 0-.694 0-1.084-.044-.347.044-.694 0-1.04-.086M10.36 17.73c.304-.044.564-.13.824-.13.303-.044.564-.044.91-.044.347 0 .65 0 .867.044.217.043.52.043.824.13.043.13.13.216.173.39.044.173.13.39.13.563.044.217.044.39.13.65.044.174.044.347.044.52.173-.303.477-.563.693-.866.304-.304.564-.564.954-.824.347-.217.737-.39 1.214-.563.477-.174.954-.217 1.474-.217 1.734 0 3.034.477 3.901 1.43.867.91 1.3 2.428 1.3 4.465v9.754c-.693.13-1.43.173-2.124.173-.693 0-1.387-.043-2.124-.173v-8.583c0-1.084-.173-1.908-.476-2.471-.347-.564-.91-.867-1.734-.867-.347 0-.694.043-1.04.173-.348.13-.694.304-.954.564-.304.303-.52.693-.694 1.214-.173.52-.303 1.213-.303 1.994v8.02c-.694.13-1.431.173-2.125.173-.693 0-1.387-.044-2.124-.174V17.73h.26zM27.613 17.686c.304-.043.564-.13.824-.13h.91c.564 0 1.084.044 1.648.174.043.13.13.216.173.39.043.173.13.39.173.65.044.217.13.39.13.65.044.217.044.39.044.52.173-.346.39-.65.65-.91.217-.303.563-.563.91-.823.347-.217.737-.39 1.214-.564.477-.173.954-.217 1.474-.217.867 0 1.647.174 2.34.477.738.347 1.388.824 1.951 1.43.564.65.954 1.431 1.258 2.428.303.954.476 2.124.476 3.425 0 1.257-.173 2.427-.563 3.424-.39 1.04-.91 1.908-1.604 2.601-.694.694-1.56 1.257-2.601 1.648-1.04.39-2.167.563-3.511.563-.347 0-.694 0-.954-.043-.347-.044-.563-.044-.824-.13v6.762c-.39.043-.736.13-1.083.13s-.694.043-1.04.043c-.347 0-.694 0-1.041-.043-.347 0-.694-.043-1.084-.13V17.686h.13zm4.205 12.008c.52.173 1.127.217 1.82.217 1.215 0 2.168-.39 2.818-1.214.65-.824.954-1.95.954-3.555 0-.65-.043-1.127-.173-1.734-.13-.52-.304-.953-.52-1.3-.217-.39-.52-.694-.91-.867-.348-.217-.824-.347-1.301-.347-.52 0-.91.13-1.257.304-.347.173-.65.476-.867.737-.217.346-.39.693-.477 1.127-.13.476-.174.91-.174 1.387v5.202h.087v.043zM48.074 26.313c-1.084-.347-1.95-.824-2.6-1.387-.651-.65-.911-1.56-.911-2.818 0-1.474.52-2.644 1.604-3.511 1.083-.867 2.514-1.257 4.335-1.257.736 0 1.56.043 2.297.216.737.13 1.474.347 2.298.65-.044.52-.13 1.04-.304 1.604-.173.564-.347 1.04-.563 1.431-.477-.173-.954-.347-1.561-.52-.564-.174-1.127-.217-1.777-.217-.694 0-1.214.13-1.56.304-.391.216-.564.52-.564.953 0 .477.13.737.39.91.303.174.65.347 1.127.52l1.647.52c.564.174 1.04.348 1.474.564.477.217.824.52 1.127.867.303.347.564.737.737 1.258.173.52.303 1.083.303 1.777 0 .737-.173 1.43-.476 2.08-.304.65-.737 1.214-1.3 1.648-.564.477-1.258.823-2.125 1.084-.824.303-1.777.39-2.818.39-.477 0-.91 0-1.3-.044-.39-.043-.737-.043-1.127-.173-.347-.043-.737-.173-1.084-.217-.347-.13-.737-.217-1.127-.39.043-.52.13-1.084.303-1.604.174-.52.347-1.084.564-1.604.65.217 1.257.477 1.82.564.564.086 1.214.173 1.821.173.304 0 .564 0 .91-.043.347-.044.65-.13.91-.304.304-.13.521-.303.694-.52.174-.217.304-.477.304-.823 0-.477-.173-.824-.39-1.04-.304-.218-.694-.39-1.214-.564l-1.864-.477zM56.96 17.73c.477-.13.868-.174 1.214-.174h2.168c.39 0 .823.044 1.127.174l3.208 13.308 3.598-13.308c.65-.13 1.3-.174 1.994-.174h.91c.347 0 .737.044 1.257.174l-5.679 18.857c-.216.736-.52 1.387-.867 1.82-.346.52-.693.867-1.083 1.127-.39.304-.867.477-1.387.564-.52.13-1.084.173-1.648.173-.563 0-1.04-.043-1.474-.13-.476-.043-.867-.173-1.3-.303v-.434c0-.477.043-.91.173-1.3s.217-.824.39-1.214c.174.043.39.13.694.173.304.044.564.044.867.044.217 0 .477 0 .694-.044.216-.043.476-.13.693-.303.217-.173.477-.39.65-.694.174-.303.39-.737.52-1.3l.52-1.82c-.216 0-.476.043-.736.043h-1.474c-.173 0-.39 0-.52-.044L56.96 17.73zM83.447 11.4c.347-.043.693-.13 1.04-.13.347 0 .694-.043 1.04-.043.347 0 .694 0 1.04.044.348 0 .694.043 1.085.13v21.067c-.91.304-1.908.477-2.818.65-.954.174-2.124.217-3.511.217-1.04 0-2.081-.13-2.991-.39-.954-.303-1.778-.737-2.515-1.387-.737-.65-1.3-1.43-1.734-2.427-.39-.954-.65-2.168-.65-3.598 0-1.128.174-2.168.564-3.165.346-.954.867-1.82 1.56-2.6.694-.738 1.474-1.301 2.471-1.735.954-.39 1.994-.65 3.208-.65.347 0 .737 0 1.084.043.39 0 .737.13 1.083.174v-6.2h.044zm0 9.494c-.39-.13-.694-.173-.954-.173-.217 0-.563-.044-.91-.044-.65 0-1.214.13-1.734.39-.477.304-.867.65-1.214 1.084-.347.434-.564.954-.694 1.56-.173.564-.216 1.215-.216 1.908 0 .824.13 1.474.303 2.081.174.607.477 1.04.824 1.3.347.347.737.564 1.214.737.476.174.953.217 1.56.217.347 0 .65 0 .91-.043.304 0 .564-.13.91-.174v-8.843zM94.544 26.616c.043 1.214.52 2.081 1.257 2.601.737.52 1.734.824 2.991.824.694 0 1.387-.044 2.081-.174s1.387-.303 1.994-.563c.217.39.39.867.564 1.43.173.564.216 1.127.303 1.778-1.56.563-3.251.867-5.202.867-1.43 0-2.644-.174-3.684-.564-1.04-.39-1.821-.91-2.471-1.647-.65-.694-1.084-1.56-1.43-2.514-.304-.954-.478-1.994-.478-3.165 0-1.17.174-2.167.477-3.164.347-.954.824-1.82 1.387-2.601.65-.737 1.387-1.3 2.298-1.734.91-.434 1.994-.65 3.208-.65 1.083 0 1.994.173 2.817.563.824.39 1.56.867 2.124 1.56.564.65 1.04 1.431 1.3 2.298.304.91.478 1.82.478 2.861 0 .39 0 .737-.044 1.084 0 .347-.043.65-.13.867h-9.797v.043h-.043zm5.982-2.947c-.043-.91-.303-1.734-.823-2.298-.477-.563-1.127-.867-1.994-.867-.954 0-1.734.304-2.255.824-.52.563-.823 1.3-.91 2.34h5.982zM107.375 33.075c-.13-.693-.173-1.3-.173-1.95 0-.65.043-1.258.173-1.994.347-.044.694-.13 1.084-.13.39 0 .737-.044 1.04-.044.347 0 .694 0 1.084.043.39.044.737.044 1.084.13.043.347.13.694.13.954 0 .347.043.65.043.954 0 .303 0 .65-.043.954 0 .346-.043.693-.13 1.04-.347.043-.694.13-1.084.13-.39 0-.737.043-1.084.043-.346 0-.693 0-1.083-.043-.347 0-.78 0-1.04-.087" transform="translate(-290.000000, -17.000000) translate(290.000000, 17.000000)"/>
            </g>
        </g>
    </g>
</svg>
