<svg xmlns="http://www.w3.org/2000/svg" version="1.1" id="Layer_1" x="0" y="0" viewBox="0 0 612 307.62" style="enable-background:new 0 0 612 307.62" xml:space="preserve">
  <style>.st0{fill:#58595b}.st1{fill:#8db61d}</style>
  <path class="st0" d="M88.71 140.42c16.51 0 29.17 9.89 32.94 13.19l15.96-14.38c-4.3-4.5-21.55-20.59-48.22-20.59-27.1 0-43.94 12.51-43.94 32.66 0 22.71 26.73 30.46 46.25 36.13 12.31 3.58 21.2 6.15 21.2 11.69 0 6.71-7.54 10.87-19.67 10.87-16.49 0-28.99-9.86-32.73-13.18l-15.95 14.37c4.29 4.5 21.52 20.59 48 20.59 27.24 0 44.16-12.52 44.16-32.66 0-22.7-26.82-30.46-46.4-36.13-12.35-3.58-21.28-6.16-21.28-11.7 0-6.59 7.73-10.86 19.68-10.86zM218.08 120.44l-25 66.75-26.41-66.75H141.3l39.28 99.65-.22.58-9.16 24.38c-3.22 8.55-.08 18.19 7.56 23.21l7.3 4.8 57.42-152.62h-25.4zM327.41 103.22v26.04l-2.52-1.64c-9.04-5.88-19.58-8.98-30.47-8.98-34.35 0-61.66 30.78-55.77 66.22 3.54 21.3 19.5 39.18 40.33 44.85 16.12 4.38 32.62 1.74 45.9-6.91l2.52-1.64v8.82h25.62V78.2l-14.93 7.6a19.561 19.561 0 0 0-10.68 17.42zm-32.08 104.75c-17.94 0-30.95-13.77-30.95-32.75 0-18.99 13.02-32.77 30.95-32.77 17.94 0 30.96 13.78 30.96 32.77-.01 18.97-13.03 32.75-30.96 32.75zM420.99 207.52c-11.7 0-21.87-6.6-26.53-17.21l-.83-1.89 83.79-15.26-.03-.32c-.03-.39-.06-.8-.06-1.23-1.1-30.43-25.85-54.32-56.35-54.32-31.19 0-56.57 25.38-56.57 56.57 0 7.09 1.36 14.13 3.94 20.35 8.24 21.34 29.88 36.22 52.63 36.22 36.26 0 52.45-27.82 55.94-34.82l-20.99-6.67c-3.39 6.26-16.5 18.58-34.94 18.58zm-30.02-43.66c2.65-13.03 13.71-23.17 26.29-24.12 12.16-1.17 24.69 6.06 30.45 17.59l.97 1.95-58.83 10.5 1.12-5.92z"/>
  <path class="st1" d="M482.91 129.81h46.54c20.99 0 38-17.01 38-38V39.16c-55.36 27.44-84.54 90.65-84.54 90.65z"/>
  <path class="st1" d="M561.95 34.55h-51.83c-20.98 0-38 17.01-38 38v40.13c.01 0 20.36-42.77 89.83-78.13z"/>
</svg>
